# xmcd
#
# Track frame offsets:
# 150
# 13705
# 29937
# 42932
# 57465
# 72872
# 88108
# 102276
# 118254
# 133602
# 150007
# 163083
# 176935
# 191243
# 207169
# 223564
# 236605
# 253193
# 269926
# 282271
# 296564
# 310629
# 321405
# 331414
#
# Disc length: 4683 seconds
#
#
# Revision: 0
# Processed by: cddbd v1.5.2PL0 Copyright (c) Steve Scherf et al.
# Submitted via: FreeRIP 2.945 
#
DISCID=7d124918
DTITLE=Seleção Sertaneja - Rick and Renner, João Paulo and Daniel, Rio Negro and Solimões... - Seleção Sertaneja
DYEAR=1900
DGENRE=Sertanejo
TTITLE0=Rick and Renner - Sofro e choro
TTITLE1=João P. e Daniel - A loira do carro branco
TTITLE2=Felipe and Falcão - Sapateia mulher feia
TTITLE3=Rio Negro and Solimões - De São Paulo a Belém
TTITLE4=Rio Negro and Solimões - Só alegria
TTITLE5=Rio Negro and Solimões - Na virada so 2000
TTITLE6=João P. and Daniel - Fazenda São Francisco
TTITLE7=Chitãozinho and Xororó - É disso que o velho gosta
TTITLE8=João Mineiro e Marciano - Viola esta chorando
TTITLE9=Daniel - Não empurra não
TTITLE10=Fred e Pedrito - As mocinhas da cidade
TTITLE11=Guilherme e Gustavo  - Abre a janela
TTITLE12=Roby e Roger - Tô facim
TTITLE13=Rick and Renner - Enrosca, enrosca
TTITLE14=João P. and Daniel - Rosto Molhado
TTITLE15=Sandro and Gustavo - A garagem da vizinha
TTITLE16=Cézar and Paulinho - Nóis é cauboi
TTITLE17=Fred and Pedrito - Ajoelhou, tem que rezar
TTITLE18=Guilherme and Gustavo - Forró suor e fricote
TTITLE19=Teodoro and Sampaio - A gostosona
TTITLE20=Teodoro and Sampaio - A rabada da cunhada
TTITLE21=Cezar and Paulino - Barbaridade
TTITLE22=Cezar and Paulino - Esquecido
TTITLE23=Cezar and Paulino - Tchaca tchaca na butchaca e Vai de roda
EXTD=Montagem, seleção
EXTT0=
EXTT1=
EXTT2=
EXTT3=
EXTT4=
EXTT5=
EXTT6=
EXTT7=
EXTT8=
EXTT9=
EXTT10=
EXTT11=
EXTT12=
EXTT13=
EXTT14=
EXTT15=
EXTT16=
EXTT17=
EXTT18=
EXTT19=
EXTT20=
EXTT21=
EXTT22=
EXTT23=
PLAYORDER=
